<?xml version="1.0" encoding="utf-8"?>
<!-- Generator: Adobe Illustrator 22.0.1, SVG Export Plug-In . SVG Version: 6.00 Build 0)  -->
<svg version="1.1" id="Layer_1" xmlns="http://www.w3.org/2000/svg" xmlns:xlink="http://www.w3.org/1999/xlink" x="0px" y="0px"
	 viewBox="0 0 24 24" style="enable-background:new 0 0 24 24;" xml:space="preserve">
<style type="text/css">
	.st0{fill:#00618A;}
</style>
<path class="st0" d="M12,3C7.6,3,4,4.8,4,7s3.6,4,8,4s8-1.8,8-4S16.4,3,12,3 M4,9v3c0,2.2,3.6,4,8,4s8-1.8,8-4V9c0,2.2-3.6,4-8,4
	S4,11.2,4,9 M4,14v3c0,2.2,3.6,4,8,4s8-1.8,8-4v-3c0,2.2-3.6,4-8,4S4,16.2,4,14z"/>
</svg>
