<?xml version="1.0" encoding="utf-8"?>
<!-- Generator: Adobe Illustrator 22.0.1, SVG Export Plug-In . SVG Version: 6.00 Build 0)  -->
<svg version="1.1" id="Layer_1" xmlns="http://www.w3.org/2000/svg" xmlns:xlink="http://www.w3.org/1999/xlink" x="0px" y="0px"
	 viewBox="0 0 500 500" style="enable-background:new 0 0 500 500;" xml:space="preserve">
<style type="text/css">
	.st0{fill:#FFFFFF;}
</style>
<g>
	<path class="st0" d="M315.5,377c11.3-3.3,22.5-6,33.2-9.9c39.7-14.6,61.9-43.9,70.7-84.5c3.7-17.2,5.1-34.7,4.1-52.2
		c-1.2-21.5-8-41.2-20.5-58.7c-2.9-4.1-3.7-7.6-2.6-12.5c4.9-21.4,1.3-42.2-5.8-62.5c-2.9-8.2-12.4-11.5-24.1-9.7
		c-19.7,3-36.8,12.1-53.3,22.5c-4.8,3.1-9.1,4-14.8,3c-29.4-5.2-58.9-7.9-88.6-3.5c-7.7,1.1-15.3,2.8-23,3.7
		c-2.9,0.3-6.4-0.1-8.9-1.6c-15.4-9.1-31.3-17.1-49-20.6c-7.8-1.6-15.8-3.4-23.3,0.6c-2.9,1.5-6.2,4.1-7.2,6.9
		c-7.7,22-11.5,44.4-5.4,67.6c0.4,1.5-0.3,3.9-1.3,5.2c-19.6,26.8-25.3,56.9-22,89.4c2,19.9,6.3,39,15.7,56.7
		c14.2,26.6,36.7,43.5,64.6,53.5c8.8,3.2,17.8,5.7,27.1,8.6c-2,5.4-3.8,11-6.1,16.5c-0.6,1.3-2.5,2.4-4,3
		c-14.6,5.3-34.9,4-46.2-10.8c-7.4-9.7-16.1-18.8-25.6-26.5c-10.7-8.7-23.7-13.4-38-11.1c-3.2,0.5-6.5,1.8-9.3,3.4
		c-7.7,4.6-9.4,12.9-3.8,19.9c3,3.8,6.7,7.4,10.9,10c12.3,7.7,19.9,19,24.7,32.2c10.8,29.7,33.3,43.1,63.3,46
		c8.3,0.8,16.8,0.1,25.8,0.1c0,11.2,0.1,21.1-0.1,30.9c-0.1,3.2-2,4-5.1,2.7c-38.4-16.1-72-39.1-100-70
		c-23.7-26.1-41.6-55.7-53.2-89C3.2,305-1.4,272.7,0.5,239.4c3.1-53.1,21-100.7,54.5-142.1C93.5,50,142.8,19.9,202.9,9.1
		c75.1-13.5,143.4,3,203.1,50.8c48.3,38.6,77.6,89.1,88.7,150c8.7,48.1,3.4,94.8-15.3,139.8c-19,45.7-49.4,82.6-90.6,110.4
		c-18.1,12.3-37.6,21.6-58.2,29c-5,1.8-6.8,0.3-6.9-5.6c-0.1-23.5,0-47.1-0.2-70.6C323.6,397.9,321.6,390.1,315.5,377z"/>
</g>
</svg>
