<?xml version="1.0" encoding="utf-8"?>
<!-- Generator: Adobe Illustrator 24.0.0, SVG Export Plug-In . SVG Version: 6.00 Build 0)  -->
<svg version="1.1" id="레이어_1" xmlns="http://www.w3.org/2000/svg" xmlns:xlink="http://www.w3.org/1999/xlink" x="0px"
	 y="0px" width="73px" height="73px" viewBox="0 0 73 73" style="enable-background:new 0 0 73 73;" xml:space="preserve">
<style type="text/css">
	.st0{fill:#FFC83D;}
</style>
<g>
	<circle class="st0" cx="36.2" cy="36.2" r="34.1"/>
	<path d="M36.2,72.4C16.2,72.4,0,56.2,0,36.2C0,16.2,16.2,0,36.2,0s36.2,16.2,36.2,36.2C72.4,56.2,56.2,72.4,36.2,72.4z M36.2,4.2
		c-17.6,0-32,14.4-32,32s14.4,32,32,32c17.6,0,32-14.4,32-32S53.8,4.2,36.2,4.2z"/>
</g>
<g>
	<g>
		<g>
			<ellipse cx="48.2" cy="30.8" rx="3.4" ry="6"/>
		</g>
	</g>
	<g>
		<g>
			<ellipse cx="24.2" cy="30.8" rx="3.4" ry="6"/>
		</g>
	</g>
</g>
<g>
	<g>
		<path d="M36.2,54.3c-6,0-11.6-1.9-15.4-5.2c-0.9-0.8-1-2.1-0.2-3c0.8-0.9,2.1-1,3-0.2c3,2.6,7.7,4.2,12.7,4.2
			c5,0,9.6-1.5,12.7-4.2c0.9-0.8,2.2-0.7,3,0.2c0.8,0.9,0.7,2.2-0.2,3C47.8,52.4,42.2,54.3,36.2,54.3z"/>
	</g>
</g>
</svg>
